<svg width="1920" height="951" viewBox="0 0 1920 951" fill="none" xmlns="http://www.w3.org/2000/svg">
<path d="M1648 784.5C1648 800.546 1641.63 815.934 1630.28 827.28C1618.93 838.626 1603.55 845 1587.5 845C1571.45 845 1556.07 838.626 1544.72 827.28C1533.37 815.934 1527 800.546 1527 784.5L1587.5 784.5H1648Z" fill="#0089FD"/>
<rect x="1738" y="479" width="181" height="181" fill="#26AC6E"/>
<path d="M1737.5 298C1713.8 298 1690.32 293.344 1668.43 284.298C1646.53 275.252 1626.63 261.994 1609.87 245.279C1593.11 228.565 1579.81 208.722 1570.74 186.883C1561.67 165.044 1557 141.638 1557 118L1737.5 118L1737.5 298Z" fill="#6DC55A"/>
<path d="M1919.5 839C1895.8 839 1872.32 834.344 1850.43 825.298C1828.53 816.252 1808.63 802.994 1791.87 786.279C1775.11 769.565 1761.81 749.722 1752.74 727.883C1743.67 706.044 1739 682.638 1739 659L1919.5 659L1919.5 839Z" fill="#FF8932"/>
<path d="M1738 298C1761.9 298 1785.57 302.695 1807.65 311.816C1829.73 320.937 1849.79 334.306 1866.69 351.16C1883.59 368.014 1897 388.022 1906.15 410.043C1915.29 432.064 1920 455.665 1920 479.5L1738 479.5V298Z" fill="#FFC300"/>
<path d="M1920 478.5C1920 502.335 1915.29 525.936 1906.15 547.957C1897 569.978 1883.59 589.986 1866.69 606.84C1849.79 623.694 1829.73 637.063 1807.65 646.184C1785.57 655.305 1761.9 660 1738 660L1738 478.5H1920Z" fill="#FFC300"/>
<path d="M-21 255.5C-21 219.033 -6.51343 184.059 19.2728 158.273C45.0591 132.487 80.0327 118 116.5 118C152.967 118 187.941 132.487 213.727 158.273C239.513 184.059 254 219.033 254 255.5L116.5 255.5L-21 255.5Z" fill="#ED597A"/>
<rect y="770" width="181" height="181" fill="#ED597A"/>
<path d="M0 588C-2.08371e-06 611.901 4.69463 635.567 13.8159 657.648C22.9371 679.73 36.3063 699.793 53.1601 716.693C70.0139 733.594 90.0224 747 112.043 756.146C134.064 765.292 157.665 770 181.5 770L181.5 588L0 588Z" fill="#FF8932"/>
</svg>
