<svg width="1920" height="630" viewBox="0 0 1920 630" fill="none" xmlns="http://www.w3.org/2000/svg">
<rect opacity="0.8" x="1736" y="441" width="181" height="181" fill="#6DC55A"/>
<path opacity="0.8" d="M0 437C-2.06649e-06 460.901 4.65583 484.567 13.7017 506.648C22.7475 528.73 36.0062 548.793 52.7208 565.693C69.4353 582.594 89.2784 596 111.117 605.146C132.956 614.292 156.362 619 180 619L180 437L0 437Z" fill="#FA3465"/>
<path opacity="0.8" d="M976 441C976 464.901 980.695 488.567 989.816 510.648C998.937 532.73 1012.31 552.793 1029.16 569.693C1046.01 586.594 1066.02 600 1088.04 609.146C1110.06 618.292 1133.67 623 1157.5 623L1157.5 441L976 441Z" fill="#FA3465"/>
<path opacity="0.8" d="M976 441C952.362 441 928.956 445.708 907.117 454.854C885.278 464 865.435 477.406 848.721 494.307C832.006 511.207 818.748 531.27 809.702 553.352C800.656 575.433 796 599.099 796 623L976 623V441Z" fill="#6DC55A"/>
<path opacity="0.8" d="M1158 441C1158 464.901 1162.66 488.567 1171.7 510.648C1180.75 532.73 1194.01 552.793 1210.72 569.693C1227.44 586.594 1247.28 600 1269.12 609.146C1290.96 618.292 1314.36 623 1338 623C1361.64 623 1385.04 618.292 1406.88 609.146C1428.72 600 1448.56 586.594 1465.28 569.693C1481.99 552.793 1495.25 532.73 1504.3 510.648C1513.34 488.567 1518 464.901 1518 441H1338L1158 441Z" fill="#F8BC18"/>
<rect opacity="0.8" x="450" y="443" width="181" height="181" fill="#FA3465"/>
<rect opacity="0.8" x="1519" y="442" width="181" height="181" fill="#FA3465"/>
<path opacity="0.8" d="M1519 604C1540.01 604 1560.82 599.81 1580.23 591.668C1599.64 583.527 1617.28 571.594 1632.14 556.551C1646.99 541.508 1658.78 523.649 1666.82 503.995C1674.86 484.34 1679 463.274 1679 442H1519V604Z" fill="#FF8932"/>
</svg>
